<?xml version="1.0" encoding="UTF-8"?>
<!DOCTYPE svg PUBLIC "-//W3C//DTD SVG 1.1//EN" "http://www.w3.org/Graphics/SVG/1.1/DTD/svg11.dtd">
<svg height="1000" width="1000" xmlns="http://www.w3.org/2000/svg"
  xmlns:x="http://www.w3.org/1999/xlink" version="1.1" baseProfile="full">
  <title>Schneemann</title>
  <desc>hoehoehoe</desc>
  <!-- <script type="text/javascript" src="genStar.js"/> -->

	<defs>
    <linearGradient id="grad1" x1="50%" y1="0%" x2="50%" y2="100%" >
    <stop offset="0%" style="stop-color:rgb(219,255,251);stop-opacity:1" />
    <stop offset="100%" style="stop-color:rgb(131,212,209);stop-opacity:1" />
    </linearGradient>
    <circle r="40" id="kugel"/>
    <polygon points="23.776412907378838,7.725424859373686 -14.694631307311825,-20.225424859373685 0,25 14.69463130731183,-20.225424859373682 -23.77641290737884,7.725424859373681"
       id="five">
      <animateTransform
        attributeType="XML"
        additive="sum"
        attributeName="transform"
        type="rotate"
        from="0"
        to="360"
        dur="4s"
        repeatCount="indefinite"
      />
    </polygon>
    <polygon points="17.677669529663685,17.67766952966369 17.67766952966369,-17.677669529663685 -17.677669529663685,-17.677669529663692 -17.677669529663692,17.677669529663685 17.677669529663685,17.67766952966369 17.67766952966369,-17.677669529663685 -17.677669529663685,-17.677669529663692 -17.677669529663692,17.677669529663685 25,1.5308084989341915e-15 3.061616997868383e-15,-25 -25,-4.592425496802574e-15 0,25 25,1.5308084989341915e-15 3.061616997868383e-15,-25" id="eight">
      <animateTransform
        attributeType="XML"
        additive="sum"
        attributeName="transform"
        type="rotate"
        from="360"
        to="0"
        dur="4s"
        repeatCount="indefinite"
      />
    </polygon>
    <polygon points="14.694631307311829,20.225424859373685 23.77641290737884,-7.725424859373684 3.061616997868383e-15,-25 -23.776412907378838,-7.725424859373689 -14.694631307311834,20.225424859373682 14.694631307311829,20.225424859373685 23.77641290737884,-7.725424859373684 3.061616997868383e-15,-25 -23.776412907378838,-7.725424859373689 -14.694631307311834,20.225424859373682 23.776412907378838,7.725424859373686 14.69463130731183,-20.225424859373682 -14.694631307311825,-20.225424859373685 -23.77641290737884,7.725424859373681 0,25 23.776412907378838,7.725424859373686 3.061616997868383e-15,-25" id="ten">
      <animateTransform
        attributeType="XML"
        additive="sum"
        attributeName="transform"
        type="rotate"
        from="360"
        to="0"
        dur="4s"
        repeatCount="indefinite"
      />
    </polygon>
    <polygon points="10.847093477938953,22.524221697560478 24.37319780454559,5.563023348907861 19.545787061700747,-15.587245046468338 3.061616997868383e-15,-25 -19.545787061700743,-15.587245046468343 -24.373197804545587,5.563023348907877 -10.847093477938959,22.524221697560478 10.847093477938953,22.524221697560478 24.37319780454559,5.563023348907861 19.545787061700747,-15.587245046468338 3.061616997868383e-15,-25 -19.545787061700743,-15.587245046468343 -24.373197804545587,5.563023348907877 -10.847093477938959,22.524221697560478 19.545787061700747,15.58724504646834 24.37319780454559,-5.563023348907858 10.847093477938955,-22.524221697560478 -10.84709347793895,-22.524221697560478 -24.37319780454559,-5.563023348907865 -19.545787061700747,15.587245046468334 0,25 19.545787061700747,15.58724504646834 3.061616997868383e-15,-25" id="fourteen">
      <animateTransform
        attributeType="XML"
        additive="sum"
        attributeName="transform"
        type="rotate"
        from="360"
        to="0"
        dur="4s"
        repeatCount="indefinite"
      />
    </polygon>
    <polygon points="8.550503583141717,23.49231551964771 21.650635094610966,12.500000000000004 24.6201938253052,-4.341204441673257 16.069690242163485,-19.15111107797445 3.061616997868383e-15,-25 -16.06969024216348,-19.151111077974452 -24.6201938253052,-4.341204441673258 -21.650635094610966,12.500000000000004 -8.550503583141737,23.492315519647704 8.550503583141717,23.49231551964771 21.650635094610966,12.500000000000004 24.6201938253052,-4.341204441673257 16.069690242163485,-19.15111107797445 3.061616997868383e-15,-25 -16.06969024216348,-19.151111077974452 -24.6201938253052,-4.341204441673258 -21.650635094610966,12.500000000000004 -8.550503583141737,23.492315519647704 16.06969024216348,19.151111077974452 24.6201938253052,4.34120444167326 21.65063509461097,-12.499999999999995 8.550503583141722,-23.492315519647708 -8.550503583141717,-23.49231551964771 -21.650635094610962,-12.50000000000001 -24.620193825305204,4.341204441673249 -16.06969024216349,19.151111077974445 0,25 16.06969024216348,19.151111077974452 3.061616997868383e-15,-25" id="eightteen">
      <animateTransform
        attributeType="XML"
        additive="sum"
        attributeName="transform"
        type="rotate"
        from="0"
        to="360"
        dur="3s"
        repeatCount="indefinite"
      />
    </polygon>
    <polygon points="5.765396768561005,24.326121764495596 16.06969024216348,19.151111077974452 22.95540267200685,9.901994150978918 24.957703956781703,-1.4536207227618998 21.65063509461097,-12.499999999999995 13.737724451770145,-20.887195285323415 2.9023228531307588,-24.830958943548577 -8.550503583141717,-23.49231551964771 -18.184341039326217,-17.15604094671834 -23.94973780788722,-7.170080817777266 -24.620193825305204,4.341204441673249 -20.0530798188761,14.928964792569646 -11.219979505011542,22.340816008085312 0,25 11.219979505011555,22.340816008085305 20.053079818876096,14.928964792569651 24.6201938253052,4.34120444167326 23.94973780788722,-7.170080817777261 18.184341039326213,-17.156040946718342 8.550503583141722,-23.492315519647708 -2.902322853130764,-24.830958943548573 -13.737724451770159,-20.887195285323408 -21.650635094610962,-12.50000000000001 -24.957703956781707,-1.4536207227618838 -22.955402672006844,9.901994150978933 -16.06969024216349,19.151111077974445 -5.765396768561011,24.326121764495596" id="twentyseven">
      <animateTransform
        attributeType="XML"
        additive="sum"
        attributeName="transform"
        type="rotate"
        from="360"
        to="0"
        dur="2s"
        repeatCount="indefinite"
      />
    </polygon>
  </defs>

  <use x="450" y="65" href="#five" fill="darkblue"/>
  <use x="50" y="45" href="#eight" fill="darkblue"/>
  <use x="360" y="55" href="#ten" fill="darkblue"/>
  <use x="170" y="45" href="#fourteen" fill="darkblue"/>
  <use x="270" y="60" href="#eightteen" fill="darkblue"/>
  <use x="510" y="35" href="#twentyseven" fill="darkblue"/>

  <use x="110" y="155" transform="scale(2.1)" href="#kugel" fill="url(#grad1)"/>
  <use x="142" y="125" transform="scale(1.6)" href="#kugel" fill="url(#grad1)"/>
	<use x="205" y="95" transform="scale(1.1)" href="#kugel" fill="url(#grad1)"/>

	<use x="245" y="285" transform="scale(0.6)" href="#kugel" fill="url(#grad1)"/>
	<use x="507" y="275" transform="scale(0.6)" href="#kugel" fill="url(#grad1)"/> <!--ARME-->

  <use x="260" y="660" transform="scale(0.6)" href="#kugel" fill="url(#grad1)">
  <animateTransform attributeName="transform" id="move"
                        attributeType="XML"
                        type="translate"
                        additive="sum"
                        values="0; 30; 0"
                        keyTimes="0 ; 0.5 ; 1"
                        dur="2s"
                        begin="zwinkern.begin+1s"
                        repeatCount="indefinite"/>
  </use>
  <use x="510" y="660" transform="scale(0.6)" href="#kugel" fill="url(#grad1)"/> <!--FÜSSE-->

  <circle r="5" cx="0" cy="0" transform="translate(215 94)">
    <animateTransform attributeName="transform" id="zwinkern"
                          attributeType="XML"
                          type="scale"
                          additive="sum"
                          values="1 1; 1 1; 1.5 0.7 ; 1 1 "
                          keyTimes="0 ; 0.7 ; 0.8 ; 1"
                          dur="1s"
                          repeatCount="indefinite"/>
  </circle>
  <circle r="5" cx="245" cy="93"/> <!--AUGEN-->

  <path d="M228 117 L280 112 L228 100 Z" fill="orange"/>  <!--NASE-->
  <path d="M220,125 C230,140 240,130 245,125" fill="none" stroke="black" stroke-width="5px"/> <!--MUND-->
</svg>
